<svg xmlns="http://www.w3.org/2000/svg" viewBox="0 0 32 32" role="img" aria-label="Barcraft">
  <defs>
    <linearGradient id="bc-bg" x1="0" y1="0" x2="32" y2="32" gradientUnits="userSpaceOnUse">
      <stop offset="0" stop-color="#242424"/>
      <stop offset="1" stop-color="#0f0f0f"/>
    </linearGradient>
    <linearGradient id="bc-beer" x1="8" y1="26" x2="8" y2="10" gradientUnits="userSpaceOnUse">
      <stop offset="0" stop-color="#b45309"/>
      <stop offset="0.45" stop-color="#f59e0b"/>
      <stop offset="1" stop-color="#fcd34d"/>
    </linearGradient>
    <linearGradient id="bc-foam" x1="9" y1="8" x2="15" y2="12" gradientUnits="userSpaceOnUse">
      <stop offset="0" stop-color="#fef3c7"/>
      <stop offset="1" stop-color="#fde68a"/>
    </linearGradient>
    <filter id="bc-glow" x="-20%" y="-20%" width="140%" height="140%">
      <feGaussianBlur stdDeviation="0.4" result="b"/>
      <feMerge>
        <feMergeNode in="b"/>
        <feMergeNode in="SourceGraphic"/>
      </feMerge>
    </filter>
  </defs>
  <rect width="32" height="32" rx="7" fill="url(#bc-bg)"/>
  <rect width="32" height="32" rx="7" fill="none" stroke="#f59e0b" stroke-opacity="0.35" stroke-width="1"/>
  <path fill="url(#bc-beer)" filter="url(#bc-glow)"
        d="M9 11h8v12a2 2 0 0 1-2 2h-4a2 2 0 0 1-2-2V11z"/>
  <path fill="#1a1206" fill-opacity="0.2" d="M9 14h8v2H9z"/>
  <path fill="none" stroke="#fbbf24" stroke-width="1.6" stroke-linecap="round"
        d="M17 14h2.2a2.8 2.8 0 0 1 0 5.6H17"/>
  <ellipse cx="13" cy="11" rx="4.2" ry="2.2" fill="url(#bc-foam)"/>
  <circle cx="10.2" cy="10.2" r="1.4" fill="#fff8e7"/>
  <circle cx="15.5" cy="9.8" r="1.1" fill="#fff8e7"/>
  <circle cx="13" cy="8.6" r="1.2" fill="#fffef5"/>
  <path fill="#fff" fill-opacity="0.12" d="M10.5 13.5h2v8a.5.5 0 0 1-.5.5h-.5a1 1 0 0 1-1-1v-6.5z"/>
</svg>
